<?xml version="1.0" standalone="no"?>
<!DOCTYPE svg PUBLIC "-//W3C//DTD SVG 20010904//EN"
 "http://www.w3.org/TR/2001/REC-SVG-20010904/DTD/svg10.dtd">
<svg version="1.0" xmlns="http://www.w3.org/2000/svg"
 width="260.000000pt" height="260.000000pt" viewBox="0 0 260.000000 260.000000"
 preserveAspectRatio="xMidYMid meet">
<metadata>
Created by potrace 1.14, written by Peter Selinger 2001-2017
</metadata>
<g transform="translate(0.000000,260.000000) scale(0.100000,-0.100000)"
fill="#000000" stroke="none">
<path d="M1180 2594 c-335 -43 -611 -178 -823 -404 -166 -177 -276 -389 -329
-633 -30 -144 -30 -370 0 -514 111 -519 496 -904 1015 -1015 144 -30 370 -30
514 0 519 111 904 496 1015 1015 30 144 30 370 0 514 -111 519 -502 909 -1015
1014 -98 20 -302 32 -377 23z m355 -129 c403 -84 739 -371 876 -745 58 -161
72 -240 73 -410 1 -216 -28 -347 -119 -536 -154 -318 -444 -545 -815 -636
-116 -29 -356 -31 -480 -5 -177 38 -336 108 -468 206 -240 178 -389 407 -464
711 -29 116 -31 356 -5 480 109 506 505 878 1012 950 87 13 297 5 390 -15z"/>
<path d="M852 1723 c-47 -23 -75 -67 -79 -127 -4 -51 -3 -54 240 -476 134
-233 251 -429 260 -434 44 -28 60 -7 310 423 215 370 241 419 244 465 5 65
-19 112 -73 143 -39 22 -43 23 -454 23 -362 0 -419 -3 -448 -17z m388 -430
c-1 -257 -3 -333 -12 -318 -6 11 -87 152 -180 314 -92 161 -168 297 -168 302
0 4 7 15 16 23 13 13 44 16 180 16 l164 0 0 -337z m464 321 c9 -8 16 -22 16
-30 0 -12 -340 -606 -356 -623 -2 -2 -4 147 -4 332 l0 337 164 0 c136 0 167
-3 180 -16z"/>
</g>
</svg>
